<svg width="25" height="23" viewBox="0 0 25 23" fill="none" xmlns="http://www.w3.org/2000/svg">
<path fill-rule="evenodd" clip-rule="evenodd" d="M2.32077 0.151646C2.23737 0.235144 2.16912 0.374628 2.16912 0.4616C2.16912 0.548669 2.54925 1.76937 3.01375 3.17425L3.85838 5.72859L8.06162 9.54891C10.3735 11.65 12.9845 14.0208 13.8641 14.8172L15.4632 16.2651L14.801 17.5911C14.4367 18.3204 14.1387 19.0097 14.1387 19.1228C14.1387 19.3692 15.3359 20.6111 15.6649 20.7061C15.8545 20.7607 16.0456 20.6152 16.9347 19.739L17.9814 18.7075L19.3283 19.7228C20.621 20.6973 20.6772 20.7542 20.7289 21.1389C20.8504 22.0447 21.6742 22.7893 22.6317 22.8585C23.3112 22.9076 23.7943 22.7608 24.2399 22.3695C25.3453 21.399 25.2273 19.6869 24.0015 18.9096C23.7547 18.7531 23.389 18.5989 23.189 18.5668C22.8565 18.5136 22.7423 18.3988 21.8604 17.2297C21.3299 16.5262 20.8957 15.912 20.8957 15.8648C20.8957 15.8175 21.3301 15.346 21.861 14.8172C22.5896 14.0914 22.8263 13.794 22.8263 13.6046C22.8263 13.4193 22.6394 13.1723 22.1126 12.6616C21.72 12.281 21.3343 11.9696 21.2553 11.9696C21.1763 11.9696 20.5012 12.2712 19.755 12.6399L18.3984 13.3102L16.725 11.4574C15.8047 10.4383 13.4853 7.86709 11.5708 5.74346C9.65647 3.61983 8.02166 1.82603 7.93797 1.7573C7.74356 1.59765 2.9679 0 2.68488 0C2.56808 0 2.40427 0.0682457 2.32077 0.151646ZM19.5713 0.835166L17.1369 1.65518L16.1928 2.68929C14.2592 4.80742 13.6437 5.49181 13.4455 5.74375L13.2421 6.00235L13.618 6.37717L13.9939 6.75199L15.8491 4.68811L17.7044 2.62433L19.4991 2.02604C20.4862 1.69707 21.3174 1.45141 21.3462 1.48007C21.3749 1.50884 21.1302 2.33706 20.8023 3.32059L20.2064 5.10888L18.7926 6.39145C16.8119 8.18834 16.025 8.91616 15.9957 8.97852C15.9818 9.00815 16.1389 9.19677 16.3447 9.39784L16.7192 9.76339L18.9276 7.75019L21.136 5.73709L21.9808 3.18226C22.4453 1.77709 22.8256 0.554557 22.8259 0.465365C22.8265 0.220761 22.5546 -0.000965425 22.2644 0.00762563C22.1221 0.0117764 20.9103 0.384184 19.5713 0.835166ZM5.52726 2.03637L7.29277 2.62481L11.1742 6.93182C13.309 9.30064 15.5661 11.804 16.1899 12.495C16.8138 13.1858 17.3241 13.777 17.3241 13.8085C17.3241 13.8401 17.1276 13.964 16.8873 14.084C16.5528 14.2511 16.3938 14.4141 16.2083 14.7804L15.966 15.2585L14.449 13.8791C13.6147 13.1205 11.0988 10.8352 8.85818 8.80081L4.78418 5.10183L4.20067 3.32802C3.87971 2.3524 3.61705 1.53027 3.61705 1.50112C3.61705 1.40613 3.7382 1.44011 5.52726 2.03637ZM7.44915 12.3591L6.5996 13.3115L5.24173 12.6405C4.49479 12.2715 3.816 11.9696 3.73327 11.9696C3.47805 11.9696 2.16912 13.3502 2.16912 13.6193C2.16912 13.79 2.43689 14.1222 3.13441 14.8172C3.66532 15.346 4.0997 15.8193 4.0997 15.8688C4.0997 15.9183 3.66937 16.5319 3.14348 17.2324C2.25185 18.42 2.1614 18.5101 1.80415 18.5672C0.433537 18.7863 -0.421997 20.461 0.214031 21.6799C0.651499 22.5183 1.39921 22.9283 2.36372 22.8585C3.32119 22.7893 4.14497 22.0447 4.2665 21.1389C4.31814 20.7542 4.37442 20.6973 5.66713 19.7228L7.01399 18.7075L8.06065 19.739C8.94978 20.6152 9.14091 20.7607 9.33049 20.7061C9.68774 20.603 10.8576 19.3679 10.8517 19.0999C10.8489 18.9743 10.552 18.289 10.1918 17.5773L9.53706 16.2831L10.583 15.3205C11.1583 14.7911 11.6282 14.3308 11.6272 14.2979C11.6262 14.2649 11.4515 14.0935 11.2389 13.9169L10.8523 13.5959L9.94268 14.4308L9.03309 15.2657L8.78356 14.7732C8.58954 14.3904 8.43808 14.2342 8.10264 14.0713C7.86538 13.9559 7.67164 13.8378 7.67222 13.8085C7.67271 13.7793 7.93478 13.473 8.25458 13.1279C9.21234 12.0943 9.20404 12.1145 8.82497 11.7234C8.64736 11.5403 8.45633 11.3941 8.40044 11.3986C8.34445 11.403 7.91644 11.8353 7.44915 12.3591ZM5.83721 14.175L7.71952 15.1252L8.70238 17.06L9.68523 18.9948L9.47132 19.1958L9.25732 19.3969L6.36986 16.5081C3.51068 13.6478 3.48423 13.6176 3.66126 13.422C3.75963 13.3133 3.8659 13.2245 3.89747 13.2246C3.92903 13.2247 4.80194 13.6524 5.83721 14.175ZM21.3341 13.422C21.5112 13.6176 21.4847 13.6478 18.6261 16.5076C15.9085 19.2263 15.7291 19.3864 15.5664 19.2392C15.4714 19.1531 15.3934 19.0352 15.3931 18.9771C15.3929 18.9189 15.811 18.0326 16.3224 17.0076L17.252 15.1437L19.1462 14.1892C20.188 13.6642 21.0664 13.2324 21.0979 13.2295C21.1295 13.2267 21.2358 13.3133 21.3341 13.422ZM5.63277 17.3154L6.24321 17.9313L5.14732 18.7585L4.05143 19.5858L3.674 19.2116L3.29648 18.8376L4.09429 17.7685C4.53311 17.1806 4.92145 16.6995 4.95716 16.6995C4.99297 16.6995 5.29704 16.9766 5.63277 17.3154ZM20.9011 17.7685L21.6989 18.8376L21.3214 19.2104L20.944 19.5831L19.854 18.7513L18.7639 17.9195L19.3685 17.3094C19.701 16.974 20.0024 16.6995 20.0382 16.6995C20.0739 16.6995 20.4623 17.1806 20.9011 17.7685ZM2.81094 19.8566C3.29571 20.1703 3.34803 21.0665 2.90747 21.5072C2.7538 21.6608 2.52367 21.7571 2.23138 21.7901C1.82297 21.836 1.76148 21.8133 1.44776 21.4995C0.47794 20.5297 1.65636 19.1095 2.81094 19.8566ZM23.502 19.8793C23.8131 20.0965 23.9851 20.6063 23.8773 20.9914C23.8321 21.1526 23.6579 21.409 23.49 21.561C23.2252 21.8008 23.1281 21.8311 22.7581 21.7894C22.2438 21.7314 21.8879 21.4298 21.8035 20.9802C21.7213 20.5415 21.8219 20.2015 22.1142 19.9306C22.504 19.5695 23.0302 19.55 23.502 19.8793Z" fill="#3A3B3D"/>
</svg>
