<svg width="438" height="594" viewBox="0 0 438 594" fill="none" xmlns="http://www.w3.org/2000/svg">
<g opacity="0.2" filter="url(#filter0_f_585_349)">
<path d="M221.674 374.155C121.613 280.016 -14.2996 241.803 -81.8943 288.804C-149.489 335.805 -123.169 450.222 -23.1075 544.361C76.9543 638.499 212.867 676.712 280.461 629.711C348.056 582.71 321.736 468.294 221.674 374.155Z" fill="url(#paint0_linear_585_349)"/>
<path d="M-165.786 278.229C-85.1815 383.209 54.0575 451.268 145.213 430.241C236.368 409.214 244.921 307.065 164.317 202.084C83.7121 97.1036 -55.5269 29.0454 -146.682 50.0721C-237.838 71.0988 -246.391 173.248 -165.786 278.229Z" fill="url(#paint1_linear_585_349)"/>
</g>
<defs>
<filter id="filter0_f_585_349" x="-341.061" y="-73.7406" width="779.01" height="843.558" filterUnits="userSpaceOnUse" color-interpolation-filters="sRGB">
<feFlood flood-opacity="0" result="BackgroundImageFix"/>
<feBlend mode="normal" in="SourceGraphic" in2="BackgroundImageFix" result="shape"/>
<feGaussianBlur stdDeviation="60" result="effect1_foregroundBlur_585_349"/>
</filter>
<linearGradient id="paint0_linear_585_349" x1="-66.8531" y1="298.277" x2="-19.0323" y2="672.643" gradientUnits="userSpaceOnUse">
<stop stop-color="#001AFF"/>
<stop offset="1" stop-color="#6EE5C2"/>
</linearGradient>
<linearGradient id="paint1_linear_585_349" x1="-156.389" y1="82.665" x2="59.7865" y2="407.296" gradientUnits="userSpaceOnUse">
<stop stop-color="#FFC83A"/>
<stop offset="0.504191" stop-color="#FF008A"/>
<stop offset="1" stop-color="#6100FF"/>
</linearGradient>
</defs>
</svg>
