<svg width="20" height="23" viewBox="0 0 20 23" fill="none" xmlns="http://www.w3.org/2000/svg">
<path fill-rule="evenodd" clip-rule="evenodd" d="M9.31184 0.0651035C8.09122 0.308639 7.10652 1.22393 6.74674 2.44945L6.64863 2.78361L4.20427 2.80589C1.83102 2.82749 1.75309 2.83097 1.52622 2.92404C0.556177 3.32205 0 4.12626 0 5.13093C0 5.76677 0.231684 6.32927 0.662439 6.73922C0.978911 7.04036 1.26767 7.20963 1.64211 7.31349C1.92213 7.3911 2.32215 7.39502 10.0046 7.39502C18.9095 7.39502 18.2491 7.41587 18.8142 7.11673C19.1315 6.94872 19.595 6.46726 19.7527 6.14183C20.0897 5.44633 20.0819 4.66141 19.7316 4.00414C19.5556 3.67386 19.1214 3.25687 18.7674 3.0782C18.2317 2.80776 18.21 2.80589 15.6359 2.80589H13.2905L13.2095 2.50514C13.165 2.33975 13.0373 2.02395 12.9258 1.80341C12.7625 1.48056 12.6442 1.32315 12.3189 0.995628C11.9634 0.63781 11.8588 0.56171 11.4488 0.363219C10.732 0.0160933 10.0408 -0.0803231 9.31184 0.0651035ZM10.5372 1.218C10.8974 1.31437 11.2278 1.50667 11.4989 1.77783C11.741 2.01985 11.983 2.42018 12.0465 2.68336L12.076 2.80589H9.93672H7.79743L7.88591 2.573C8.12232 1.95088 8.65578 1.45031 9.30293 1.2434C9.61032 1.14511 10.218 1.13259 10.5372 1.218ZM18.1936 4.0077C19.0732 4.45699 19.0554 5.66697 18.1622 6.13813L17.9333 6.25888H9.98025H2.02724L1.80046 6.1392C1.36792 5.91099 1.14724 5.55384 1.14488 5.07818C1.14305 4.71309 1.2699 4.4316 1.54578 4.18877C1.92325 3.85653 1.23194 3.88086 10.0471 3.88959L17.9778 3.89748L18.1936 4.0077ZM2.24173 8.64032C2.16362 8.68795 2.07371 8.7731 2.04185 8.8295C1.9952 8.91229 1.98487 9.99314 1.98861 14.4124C1.99378 20.5802 1.97168 20.1694 2.33801 20.9174C2.76649 21.7922 3.51559 22.4184 4.47775 22.7059C4.72667 22.7803 5.09287 22.7868 9.80203 22.7998C14.2986 22.8123 14.8982 22.8059 15.2127 22.7425C16.5093 22.481 17.5342 21.4928 17.8712 20.179C17.9226 19.9787 17.9333 18.9868 17.9333 14.4021V8.86706L17.7939 8.72765C17.5381 8.47186 17.0921 8.51214 16.8978 8.80856C16.8243 8.92066 16.818 9.27705 16.7971 14.455L16.7748 19.9817L16.65 20.2764C16.3974 20.8728 15.8486 21.3784 15.2549 21.5618C14.9666 21.6508 14.8661 21.6525 9.98671 21.652C4.54783 21.6514 4.80612 21.6635 4.28478 21.3856C3.95953 21.2123 3.53074 20.7789 3.36927 20.4602C3.11264 19.9538 3.12021 20.139 3.1195 14.33C3.11892 9.56042 3.11134 8.97435 3.04857 8.84207C2.92034 8.57189 2.51868 8.47146 2.24173 8.64032ZM5.70728 9.40925C5.64838 9.44088 5.55816 9.5234 5.50678 9.59259C5.41349 9.71824 5.4134 9.72367 5.40016 14.5827C5.39107 17.9286 5.40177 19.4982 5.43438 19.6108C5.53713 19.9655 5.93928 20.1131 6.26109 19.9142C6.5695 19.7236 6.55199 20.0589 6.53898 14.5947L6.52726 9.669L6.3866 9.52834C6.27642 9.41816 6.19916 9.38381 6.03017 9.36969C5.9043 9.35917 5.76975 9.37565 5.70728 9.40925ZM9.65781 9.42515C9.38719 9.57201 9.40104 9.28802 9.40104 14.6797C9.40104 20.0909 9.38589 19.7911 9.6669 19.9364C9.73881 19.9736 9.87809 20.004 9.97651 20.004C10.2068 20.004 10.4491 19.8031 10.5153 19.5572C10.5896 19.2812 10.5545 9.76444 10.4786 9.63149C10.338 9.38501 9.92376 9.28084 9.65781 9.42515ZM13.6477 9.44231C13.5696 9.48994 13.4801 9.57508 13.4488 9.63149C13.4037 9.71284 13.3904 10.7413 13.385 14.5906C13.3812 17.2617 13.3953 19.5185 13.4164 19.6059C13.5277 20.0692 14.1809 20.1443 14.4375 19.7233C14.5224 19.5842 14.5245 19.4619 14.5247 14.6663C14.5248 9.26984 14.54 9.56831 14.259 9.42302C14.0796 9.3303 13.8179 9.33854 13.6477 9.44231Z" fill="#3A3B3D"/>
</svg>
