<svg width="276" height="273" viewBox="0 0 276 273" fill="none" xmlns="http://www.w3.org/2000/svg">
<g filter="url(#filter0_d_323_869)">
<path d="M103.646 57.2185C103.043 57.822 102.585 58.5495 102.202 59.347L102.159 59.3039L41.7193 195.455L41.7786 195.515C40.6577 197.686 42.533 202.105 46.3752 205.952C50.2173 209.795 54.6361 211.67 56.8077 210.549L56.8616 210.603L193.013 150.158L192.97 150.109C193.762 149.732 194.489 149.274 195.098 148.66C203.516 140.242 189.866 112.949 164.62 87.6971C139.363 62.4456 112.069 48.8013 103.646 57.2185Z" fill="#DD2E44"/>
<path d="M111.051 81.5334L43.2389 192.034L41.7193 195.456L41.7786 195.516C40.6577 197.687 42.533 202.106 46.3752 205.954C47.6254 207.204 48.924 208.152 50.1958 208.955L132.605 108.477L111.051 81.5334Z" fill="#EA596E"/>
<path d="M165.004 87.2794C190.169 112.456 204.142 139.291 196.199 147.223C188.262 155.166 161.426 141.199 136.245 116.034C111.074 90.8575 97.1063 64.0109 105.044 56.0734C112.987 48.1358 139.823 62.1033 165.004 87.2794Z" fill="#A0041E"/>
<path d="M141.175 90.2042C140.102 91.0718 138.701 91.5244 137.219 91.3628C132.542 90.8562 128.608 89.2288 125.855 86.6584C122.939 83.9371 121.5 80.2836 121.894 76.6246C122.584 70.2013 129.029 64.306 140.016 65.4915C144.289 65.9496 146.197 64.5755 146.262 63.918C146.337 63.266 144.769 61.5147 140.496 61.0512C135.818 60.5447 131.885 58.9173 129.126 56.3469C126.21 53.6256 124.766 49.972 125.165 46.3131C125.865 39.8897 132.305 33.9945 143.282 35.1854C146.396 35.5195 148.04 34.8782 148.735 34.4633C149.29 34.1238 149.511 33.8005 149.533 33.6119C149.597 32.9598 148.051 31.2085 143.767 30.7451C140.808 30.4218 138.664 27.7705 138.992 24.8067C139.31 21.8483 141.956 19.709 144.925 20.0323C155.902 21.2124 160.946 28.3417 160.251 34.7705C159.55 41.2046 153.111 47.0891 142.123 45.9089C139.008 45.5694 137.381 46.2161 136.681 46.631C136.125 46.9651 135.899 47.2938 135.878 47.4771C135.808 48.1345 137.365 49.8804 141.649 50.3438C152.626 51.5294 157.67 58.6533 156.974 65.082C156.279 71.5053 149.84 77.4006 138.858 76.2097C135.743 75.8756 134.105 76.5222 133.404 76.9318C132.844 77.2767 132.628 77.6 132.607 77.7832C132.537 78.4352 134.094 80.1866 138.373 80.65C141.326 80.9733 143.476 83.63 143.147 86.5884C142.996 88.0649 142.247 89.342 141.175 90.2042Z" fill="#AA8DD8"/>
<path d="M206.224 140.039C216.856 137.038 224.19 141.78 225.936 148.004C227.682 154.222 223.899 162.095 213.273 165.086C209.123 166.25 207.879 168.233 208.046 168.864C208.229 169.499 210.336 170.545 214.474 169.375C225.101 166.385 232.435 171.127 234.181 177.345C235.938 183.569 232.144 191.431 221.512 194.428C217.368 195.592 216.118 197.58 216.301 198.21C216.479 198.841 218.581 199.886 222.725 198.722C225.581 197.919 228.566 199.585 229.369 202.446C230.166 205.313 228.501 208.287 225.634 209.096C215.013 212.086 207.674 207.355 205.917 201.126C204.171 194.907 207.959 187.045 218.597 184.049C222.746 182.88 223.991 180.902 223.808 180.266C223.635 179.636 221.534 178.585 217.395 179.749C206.758 182.745 199.429 178.014 197.678 171.779C195.926 165.56 199.715 157.698 210.347 154.697C214.485 153.538 215.73 151.544 215.558 150.919C215.374 150.283 213.278 149.238 209.134 150.402C206.267 151.21 203.298 149.54 202.49 146.678C201.687 143.822 203.358 140.848 206.224 140.039Z" fill="#77B255"/>
<path d="M164.946 125.506C163.362 125.506 161.799 124.811 160.732 123.485C158.873 121.158 159.255 117.768 161.573 115.909C162.747 114.966 190.769 92.9584 230.37 98.622C233.318 99.0423 235.366 101.769 234.945 104.717C234.525 107.659 231.82 109.728 228.845 109.286C193.856 104.318 168.562 124.127 168.314 124.326C167.312 125.124 166.126 125.506 164.946 125.506Z" fill="#AA8DD8"/>
<path d="M72.006 103.089C71.4941 103.089 70.9714 103.013 70.454 102.862C67.6034 102.006 65.9868 99.0041 66.8436 96.1535C72.949 75.8219 78.4832 43.3764 71.6827 34.9161C70.9229 33.9569 69.7751 33.0139 67.1454 33.2133C62.0908 33.6013 62.5704 44.2656 62.5757 44.3733C62.8021 47.3425 60.5711 49.9291 57.6073 50.15C54.5951 50.3332 52.0516 48.1454 51.8306 45.1762C51.2756 37.7452 53.5874 23.4328 66.3371 22.4682C72.0276 22.0371 76.7535 24.0148 80.0891 28.1641C92.8657 44.0662 79.8951 90.1666 77.1684 99.252C76.4679 101.585 74.3231 103.089 72.006 103.089Z" fill="#77B255"/>
<path d="M178.413 76.1447C182.877 76.1447 186.496 72.5257 186.496 68.0616C186.496 63.5974 182.877 59.9785 178.413 59.9785C173.949 59.9785 170.33 63.5974 170.33 68.0616C170.33 72.5257 173.949 76.1447 178.413 76.1447Z" fill="#5C913B"/>
<path d="M51.7774 124.643C57.7296 124.643 62.5549 119.818 62.5549 113.866C62.5549 107.914 57.7296 103.088 51.7774 103.088C45.8252 103.088 41 107.914 41 113.866C41 119.818 45.8252 124.643 51.7774 124.643Z" fill="#9266CC"/>
<path d="M216.134 130.032C220.598 130.032 224.217 126.413 224.217 121.949C224.217 117.485 220.598 113.866 216.134 113.866C211.67 113.866 208.051 117.485 208.051 121.949C208.051 126.413 211.67 130.032 216.134 130.032Z" fill="#5C913B"/>
<path d="M167.636 194.696C172.1 194.696 175.719 191.078 175.719 186.613C175.719 182.149 172.1 178.53 167.636 178.53C163.172 178.53 159.553 182.149 159.553 186.613C159.553 191.078 163.172 194.696 167.636 194.696Z" fill="#5C913B"/>
<path d="M191.885 49.2011C197.837 49.2011 202.662 44.3759 202.662 38.4237C202.662 32.4715 197.837 27.6462 191.885 27.6462C185.933 27.6462 181.107 32.4715 181.107 38.4237C181.107 44.3759 185.933 49.2011 191.885 49.2011Z" fill="#FFCC4D"/>
<path d="M216.134 70.756C220.598 70.756 224.217 67.1371 224.217 62.6729C224.217 58.2088 220.598 54.5898 216.134 54.5898C211.67 54.5898 208.051 58.2088 208.051 62.6729C208.051 67.1371 211.67 70.756 216.134 70.756Z" fill="#FFCC4D"/>
<path d="M199.968 92.3109C204.432 92.3109 208.051 88.692 208.051 84.2278C208.051 79.7637 204.432 76.1448 199.968 76.1448C195.504 76.1448 191.885 79.7637 191.885 84.2278C191.885 88.692 195.504 92.3109 199.968 92.3109Z" fill="#FFCC4D"/>
<path d="M81.4151 151.587C85.8793 151.587 89.4982 147.968 89.4982 143.504C89.4982 139.04 85.8793 135.421 81.4151 135.421C76.9509 135.421 73.332 139.04 73.332 143.504C73.332 147.968 76.9509 151.587 81.4151 151.587Z" fill="#FFCC4D"/>
</g>
<defs>
<filter id="filter0_d_323_869" x="0.47271" y="0.657429" width="275.055" height="271.925" filterUnits="userSpaceOnUse" color-interpolation-filters="sRGB">
<feFlood flood-opacity="0" result="BackgroundImageFix"/>
<feColorMatrix in="SourceAlpha" type="matrix" values="0 0 0 0 0 0 0 0 0 0 0 0 0 0 0 0 0 0 127 0" result="hardAlpha"/>
<feOffset dy="21.1847"/>
<feGaussianBlur stdDeviation="20.2636"/>
<feComposite in2="hardAlpha" operator="out"/>
<feColorMatrix type="matrix" values="0 0 0 0 0.341667 0 0 0 0 0.0546667 0 0 0 0 0.295747 0 0 0 0.13 0"/>
<feBlend mode="normal" in2="BackgroundImageFix" result="effect1_dropShadow_323_869"/>
<feBlend mode="normal" in="SourceGraphic" in2="effect1_dropShadow_323_869" result="shape"/>
</filter>
</defs>
</svg>
