<svg width="236" height="232" viewBox="0 0 236 232" fill="none" xmlns="http://www.w3.org/2000/svg">
<g filter="url(#filter0_d_713_53)">
<path d="M90.7304 49.2491C90.2513 49.7234 89.8877 50.2951 89.584 50.9218L89.5497 50.8879L41.5715 157.886L41.6185 157.932C40.7288 159.639 42.2174 163.111 45.2674 166.135C48.3174 169.154 51.825 170.628 53.5489 169.747L53.5917 169.79L161.671 122.287L161.637 122.249C162.266 121.953 162.843 121.593 163.327 121.11C170.008 114.495 159.173 93.0458 139.132 73.2013C119.083 53.3569 97.4163 42.6342 90.7304 49.2491V49.2491Z" fill="#DD2E44"/>
<path d="M96.6079 68.3574L42.7778 155.197L41.5715 157.886L41.6185 157.933C40.7288 159.64 42.2174 163.112 45.2674 166.136C46.2598 167.118 47.2907 167.864 48.3003 168.495L113.719 89.5316L96.6079 68.3574Z" fill="#EA596E"/>
<path d="M139.436 72.873C159.413 92.6582 170.505 113.748 164.2 119.981C157.899 126.224 136.596 115.247 116.607 95.4701C96.6256 75.685 85.5379 54.587 91.8389 48.349C98.1442 42.1111 119.447 53.0878 139.436 72.873V72.873Z" fill="#A0041E"/>
<path d="M120.52 75.1716C119.669 75.8534 118.557 76.2091 117.38 76.082C113.667 75.684 110.545 74.405 108.359 72.385C106.045 70.2464 104.902 67.3752 105.215 64.4997C105.762 59.4518 110.878 54.8189 119.6 55.7506C122.993 56.1105 124.507 55.0306 124.558 54.514C124.618 54.0016 123.373 52.6252 119.981 52.261C116.268 51.863 113.145 50.584 110.955 48.564C108.641 46.4254 107.495 43.5542 107.811 40.6787C108.367 35.6308 113.479 30.9979 122.193 31.9338C124.665 32.1963 125.97 31.6924 126.522 31.3663C126.962 31.0995 127.138 30.8454 127.155 30.6972C127.206 30.1848 125.978 28.8085 122.578 28.4443C120.229 28.1902 118.527 26.1066 118.788 23.7775C119.04 21.4525 121.14 19.7713 123.497 20.0254C132.211 20.9528 136.215 26.5555 135.663 31.6077C135.107 36.6641 129.995 41.2886 121.273 40.3611C118.801 40.0943 117.509 40.6025 116.953 40.9286C116.512 41.1912 116.332 41.4495 116.315 41.5935C116.26 42.1101 117.496 43.4822 120.897 43.8464C129.61 44.7781 133.614 50.3765 133.062 55.4287C132.51 60.4766 127.399 65.1096 118.681 64.1737C116.208 63.9111 114.908 64.4193 114.352 64.7411C113.907 65.0122 113.736 65.2663 113.719 65.4102C113.663 65.9227 114.899 67.299 118.296 67.6632C120.64 67.9173 122.347 70.005 122.086 72.33C121.966 73.4903 121.371 74.494 120.52 75.1716V75.1716Z" fill="#AA8DD8"/>
<path d="M172.159 114.336C180.599 111.977 186.421 115.704 187.807 120.595C189.193 125.482 186.19 131.669 177.754 134.019C174.46 134.934 173.472 136.492 173.605 136.988C173.75 137.488 175.423 138.309 178.708 137.39C187.144 135.04 192.965 138.767 194.351 143.654C195.746 148.545 192.734 154.723 184.295 157.078C181.005 157.993 180.013 159.555 180.158 160.051C180.299 160.546 181.968 161.368 185.257 160.453C187.524 159.822 189.894 161.131 190.531 163.379C191.165 165.632 189.843 167.97 187.567 168.605C179.136 170.956 173.31 167.237 171.915 162.342C170.529 157.455 173.536 151.276 181.98 148.922C185.274 148.003 186.262 146.449 186.117 145.949C185.98 145.453 184.312 144.628 181.026 145.542C172.582 147.897 166.765 144.179 165.374 139.279C163.984 134.392 166.991 128.213 175.431 125.854C178.717 124.944 179.705 123.377 179.568 122.886C179.422 122.386 177.758 121.565 174.469 122.479C172.193 123.115 169.836 121.802 169.194 119.553C168.557 117.309 169.883 114.971 172.159 114.336V114.336Z" fill="#77B255"/>
<path d="M139.391 102.914C138.133 102.914 136.892 102.368 136.045 101.326C134.57 99.4969 134.873 96.8332 136.713 95.3721C137.645 94.631 159.889 77.3359 191.326 81.7868C193.666 82.1171 195.291 84.2599 194.957 86.5764C194.624 88.8886 192.476 90.5148 190.115 90.1675C162.34 86.263 142.261 101.83 142.064 101.987C141.269 102.614 140.327 102.914 139.391 102.914V102.914Z" fill="#AA8DD8"/>
<path d="M65.614 85.2972C65.2076 85.2972 64.7927 85.2379 64.382 85.1193C62.1191 84.446 60.8358 82.0872 61.516 79.8469C66.3626 63.8689 70.7557 38.3709 65.3573 31.7221C64.7542 30.9683 63.843 30.2272 61.7555 30.3839C57.7431 30.6888 58.1238 39.0696 58.1281 39.1543C58.3077 41.4877 56.5368 43.5204 54.1841 43.6941C51.7929 43.838 49.7738 42.1187 49.5984 39.7853C49.1578 33.9454 50.9929 22.6977 61.1139 21.9397C65.6311 21.6009 69.3826 23.1551 72.0305 26.4159C82.1728 38.9129 71.8765 75.142 69.712 82.282C69.1559 84.1157 67.4534 85.2972 65.614 85.2972Z" fill="#77B255"/>
<path d="M150.081 64.1225C153.624 64.1225 156.497 61.2785 156.497 57.7702C156.497 54.262 153.624 51.418 150.081 51.418C146.537 51.418 143.664 54.262 143.664 57.7702C143.664 61.2785 146.537 64.1225 150.081 64.1225Z" fill="#5C913B"/>
<path d="M49.5553 102.236C54.2803 102.236 58.1106 98.4442 58.1106 93.7666C58.1106 89.0889 54.2803 85.2969 49.5553 85.2969C44.8303 85.2969 41 89.0889 41 93.7666C41 98.4442 44.8303 102.236 49.5553 102.236Z" fill="#9266CC"/>
<path d="M180.024 106.471C183.568 106.471 186.44 103.627 186.44 100.119C186.44 96.6106 183.568 93.7666 180.024 93.7666C176.48 93.7666 173.607 96.6106 173.607 100.119C173.607 103.627 176.48 106.471 180.024 106.471Z" fill="#5C913B"/>
<path d="M141.526 157.289C145.07 157.289 147.942 154.445 147.942 150.937C147.942 147.429 145.07 144.585 141.526 144.585C137.982 144.585 135.109 147.429 135.109 150.937C135.109 154.445 137.982 157.289 141.526 157.289Z" fill="#5C913B"/>
<path d="M160.776 42.9484C165.501 42.9484 169.331 39.1564 169.331 34.4787C169.331 29.801 165.501 26.009 160.776 26.009C156.051 26.009 152.221 29.801 152.221 34.4787C152.221 39.1564 156.051 42.9484 160.776 42.9484Z" fill="#FFCC4D"/>
<path d="M180.024 59.8876C183.568 59.8876 186.44 57.0436 186.44 53.5354C186.44 50.0271 183.568 47.1831 180.024 47.1831C176.48 47.1831 173.607 50.0271 173.607 53.5354C173.607 57.0436 176.48 59.8876 180.024 59.8876Z" fill="#FFCC4D"/>
<path d="M167.192 76.8271C170.736 76.8271 173.608 73.9831 173.608 70.4748C173.608 66.9666 170.736 64.1226 167.192 64.1226C163.648 64.1226 160.775 66.9666 160.775 70.4748C160.775 73.9831 163.648 76.8271 167.192 76.8271Z" fill="#FFCC4D"/>
<path d="M73.0825 123.411C76.6262 123.411 79.499 120.567 79.499 117.058C79.499 113.55 76.6262 110.706 73.0825 110.706C69.5388 110.706 66.666 113.55 66.666 117.058C66.666 120.567 69.5388 123.411 73.0825 123.411Z" fill="#FFCC4D"/>
</g>
<defs>
<filter id="filter0_d_713_53" x="0.47271" y="0.657429" width="235.055" height="231.055" filterUnits="userSpaceOnUse" color-interpolation-filters="sRGB">
<feFlood flood-opacity="0" result="BackgroundImageFix"/>
<feColorMatrix in="SourceAlpha" type="matrix" values="0 0 0 0 0 0 0 0 0 0 0 0 0 0 0 0 0 0 127 0" result="hardAlpha"/>
<feOffset dy="21.1847"/>
<feGaussianBlur stdDeviation="20.2636"/>
<feComposite in2="hardAlpha" operator="out"/>
<feColorMatrix type="matrix" values="0 0 0 0 0.341667 0 0 0 0 0.0546667 0 0 0 0 0.295747 0 0 0 0.13 0"/>
<feBlend mode="normal" in2="BackgroundImageFix" result="effect1_dropShadow_713_53"/>
<feBlend mode="normal" in="SourceGraphic" in2="effect1_dropShadow_713_53" result="shape"/>
</filter>
</defs>
</svg>
