<svg width="50" height="30" viewBox="0 0 50 30" fill="none" xmlns="http://www.w3.org/2000/svg">
<path fill-rule="evenodd" clip-rule="evenodd" d="M23.2735 0.0201106C14.5657 0.646283 6.80573 4.97127 1.79813 11.9893C1.1386 12.9136 0 14.753 0 14.8942C0 14.9416 0.266643 15.4213 0.59261 15.9602C4.58543 22.5619 11.028 27.2676 18.5083 29.046C19.5804 29.3008 20.6638 29.4898 21.962 29.6483C23.3669 29.8199 26.6331 29.8199 28.038 29.6483C31.6018 29.2131 34.6151 28.3218 37.6525 26.8044C42.5686 24.3486 46.4948 20.7253 49.4057 15.9583C49.7326 15.423 50 14.9459 50 14.898C50 14.8502 49.7541 14.4024 49.4536 13.9029C46.0632 8.26836 40.9763 4.04413 34.8066 1.73979C32.7514 0.97218 30.4896 0.436753 28.0732 0.145732C27.2131 0.0421409 24.1003 -0.0393506 23.2735 0.0201106ZM27.0974 3.91271C29.3335 4.35097 31.2222 5.36533 32.8788 7.01767C34.5302 8.66484 35.535 10.5419 35.9924 12.8342C36.2162 13.9556 36.2162 15.8328 35.9924 16.9541C35.5354 19.2443 34.5339 21.1145 32.8771 22.7713C31.2204 24.428 29.3501 25.4296 27.0599 25.8865C25.9386 26.1103 24.0614 26.1103 22.9401 25.8865C20.6519 25.43 18.7853 24.4305 17.1212 22.7707C15.4698 21.1235 14.465 19.2464 14.0076 16.9541C13.7838 15.8328 13.7838 13.9556 14.0076 12.8342C14.4657 10.5386 15.4635 8.67423 17.1218 7.01602C18.7775 5.36029 20.7024 4.32935 22.9055 3.91837C23.9367 3.72604 24.0615 3.71679 25.2762 3.74275C26.0042 3.75829 26.5869 3.81264 27.0974 3.91271ZM16.6352 4.10346C15.5769 4.89869 14.3825 6.18646 13.5712 7.40704C12.5244 8.98182 11.8631 10.6775 11.486 12.7533C11.3186 13.675 11.3186 16.1131 11.486 17.035C11.9473 19.5758 12.8485 21.5825 14.3862 23.4931C14.9075 24.1408 16.012 25.2174 16.6347 25.6849C16.8751 25.8653 17.039 26.0129 16.9989 26.0129C16.9589 26.0129 16.5907 25.8924 16.1806 25.7452C13.4049 24.7483 10.8309 23.282 8.42541 21.3273C6.5886 19.8348 4.18646 17.1261 3.04137 15.2562L2.81899 14.8931L2.99116 14.6001C3.08591 14.439 3.39634 13.9747 3.68115 13.5684C6.42369 9.65509 10.2673 6.53377 14.6806 4.63584C15.522 4.27397 16.8352 3.78426 16.9785 3.77894C17.0298 3.77701 16.8753 3.923 16.6352 4.10346ZM33.8194 4.04317C36.5951 5.04006 39.1691 6.50635 41.5746 8.46104C43.4112 9.95337 45.8136 12.6623 46.9584 14.5316L47.1804 14.8942L46.9584 15.2567C45.8136 17.1261 43.4112 19.835 41.5746 21.3273C39.1811 23.2722 36.5704 24.7596 33.8194 25.7457C33.4093 25.8927 33.0411 26.0129 33.0011 26.0129C32.9611 26.0129 33.1213 25.8678 33.3573 25.6905C33.9888 25.2157 34.897 24.3371 35.4868 23.6303C37.826 20.8272 38.9812 17.0813 38.6026 13.5275C38.312 10.8007 37.3328 8.43107 35.6138 6.29523C35.0925 5.64758 33.988 4.57093 33.3653 4.10346C33.1249 3.923 32.9611 3.77542 33.0011 3.77542C33.0411 3.77542 33.4093 3.89593 33.8194 4.04317ZM23.9354 7.50724C20.9559 7.97706 18.5506 10.1492 17.7695 13.0753C17.6086 13.6784 17.5882 13.8826 17.5882 14.8942C17.5882 15.9057 17.6086 16.11 17.7695 16.713C18.4795 19.3727 20.5227 21.4147 23.1853 22.1256C23.7837 22.2854 23.9901 22.306 25 22.306C26.0152 22.306 26.2146 22.2859 26.8285 22.1221C29.4744 21.4164 31.5224 19.3645 32.2315 16.7089C32.3913 16.1105 32.4118 15.904 32.4118 14.8942C32.4118 13.8826 32.3914 13.6784 32.2305 13.0753C31.5199 10.4133 29.4494 8.3466 26.8147 7.66946C26.054 7.47395 24.6486 7.39474 23.9354 7.50724ZM25 11.1496V11.7558L24.5271 11.8304C23.1848 12.0417 22.1484 13.0732 21.9384 14.407L21.8617 14.8942H21.2555H20.6492L20.6503 14.6697C20.6528 14.219 20.8606 13.4647 21.1369 12.9043C21.528 12.1109 22.216 11.4226 23.0101 11.0306C23.5865 10.746 24.2583 10.5591 24.741 10.5488L25 10.5434V11.1496Z" fill="#272650"/>
</svg>
